<?xml version="1.0" encoding="utf-8" standalone="no"?>
<!DOCTYPE svg PUBLIC "-//W3C//DTD SVG 1.1//EN"
  "http://www.w3.org/Graphics/SVG/1.1/DTD/svg11.dtd">
<!-- Created with matplotlib (https://matplotlib.org/) -->
<svg height="494.719219pt" version="1.1" viewBox="0 0 727.352656 494.719219" width="727.352656pt" xmlns="http://www.w3.org/2000/svg" xmlns:xlink="http://www.w3.org/1999/xlink">
 <metadata>
  <rdf:RDF xmlns:cc="http://creativecommons.org/ns#" xmlns:dc="http://purl.org/dc/elements/1.1/" xmlns:rdf="http://www.w3.org/1999/02/22-rdf-syntax-ns#">
   <cc:Work>
    <dc:type rdf:resource="http://purl.org/dc/dcmitype/StillImage"/>
    <dc:date>2021-04-09T20:01:48.472949</dc:date>
    <dc:format>image/svg+xml</dc:format>
    <dc:creator>
     <cc:Agent>
      <dc:title>Matplotlib v3.3.2, https://matplotlib.org/</dc:title>
     </cc:Agent>
    </dc:creator>
   </cc:Work>
  </rdf:RDF>
 </metadata>
 <defs>
  <style type="text/css">*{stroke-linecap:butt;stroke-linejoin:round;}</style>
 </defs>
 <g id="figure_1">
  <g id="patch_1">
   <path d="M 0 494.719219 
L 727.352656 494.719219 
L 727.352656 0 
L 0 0 
z
" style="fill:#ffffff;"/>
  </g>
  <g id="axes_1">
   <g id="patch_2">
    <path d="M 54.152656 447.12 
L 723.752656 447.12 
L 723.752656 3.6 
L 54.152656 3.6 
z
" style="fill:#ffffff;"/>
   </g>
   <g id="PathCollection_1">
    <defs>
     <path d="M 0 4.472136 
C 1.186024 4.472136 2.323632 4.000923 3.162278 3.162278 
C 4.000923 2.323632 4.472136 1.186024 4.472136 0 
C 4.472136 -1.186024 4.000923 -2.323632 3.162278 -3.162278 
C 2.323632 -4.000923 1.186024 -4.472136 0 -4.472136 
C -1.186024 -4.472136 -2.323632 -4.000923 -3.162278 -3.162278 
C -4.000923 -2.323632 -4.472136 -1.186024 -4.472136 0 
C -4.472136 1.186024 -4.000923 2.323632 -3.162278 3.162278 
C -2.323632 4.000923 -1.186024 4.472136 0 4.472136 
z
" id="mb86b386e4f" style="stroke:#1f77b4;"/>
    </defs>
    <g clip-path="url(#p6764085306)">
     <use style="fill:#1f77b4;stroke:#1f77b4;" x="101.50072" xlink:href="#mb86b386e4f" y="406.844053"/>
    </g>
   </g>
   <g id="PathCollection_2">
    <defs>
     <path d="M 0 4.472136 
C 1.186024 4.472136 2.323632 4.000923 3.162278 3.162278 
C 4.000923 2.323632 4.472136 1.186024 4.472136 0 
C 4.472136 -1.186024 4.000923 -2.323632 3.162278 -3.162278 
C 2.323632 -4.000923 1.186024 -4.472136 0 -4.472136 
C -1.186024 -4.472136 -2.323632 -4.000923 -3.162278 -3.162278 
C -4.000923 -2.323632 -4.472136 -1.186024 -4.472136 0 
C -4.472136 1.186024 -4.000923 2.323632 -3.162278 3.162278 
C -2.323632 4.000923 -1.186024 4.472136 0 4.472136 
z
" id="m533a6b8ec8" style="stroke:#ff7f0e;"/>
    </defs>
    <g clip-path="url(#p6764085306)">
     <use style="fill:#ff7f0e;stroke:#ff7f0e;" x="118.920514" xlink:href="#m533a6b8ec8" y="401.582632"/>
    </g>
   </g>
   <g id="PathCollection_3">
    <defs>
     <path d="M 0 4.472136 
C 1.186024 4.472136 2.323632 4.000923 3.162278 3.162278 
C 4.000923 2.323632 4.472136 1.186024 4.472136 0 
C 4.472136 -1.186024 4.000923 -2.323632 3.162278 -3.162278 
C 2.323632 -4.000923 1.186024 -4.472136 0 -4.472136 
C -1.186024 -4.472136 -2.323632 -4.000923 -3.162278 -3.162278 
C -4.000923 -2.323632 -4.472136 -1.186024 -4.472136 0 
C -4.472136 1.186024 -4.000923 2.323632 -3.162278 3.162278 
C -2.323632 4.000923 -1.186024 4.472136 0 4.472136 
z
" id="m648757a8ff" style="stroke:#2ca02c;"/>
    </defs>
    <g clip-path="url(#p6764085306)">
     <use style="fill:#2ca02c;stroke:#2ca02c;" x="294.806306" xlink:href="#m648757a8ff" y="211.39638"/>
    </g>
   </g>
   <g id="PathCollection_4">
    <defs>
     <path d="M 0 4.472136 
C 1.186024 4.472136 2.323632 4.000923 3.162278 3.162278 
C 4.000923 2.323632 4.472136 1.186024 4.472136 0 
C 4.472136 -1.186024 4.000923 -2.323632 3.162278 -3.162278 
C 2.323632 -4.000923 1.186024 -4.472136 0 -4.472136 
C -1.186024 -4.472136 -2.323632 -4.000923 -3.162278 -3.162278 
C -4.000923 -2.323632 -4.472136 -1.186024 -4.472136 0 
C -4.472136 1.186024 -4.000923 2.323632 -3.162278 3.162278 
C -2.323632 4.000923 -1.186024 4.472136 0 4.472136 
z
" id="madf9b94623" style="stroke:#d62728;"/>
    </defs>
    <g clip-path="url(#p6764085306)">
     <use style="fill:#d62728;stroke:#d62728;" x="449.281938" xlink:href="#madf9b94623" y="104.025296"/>
    </g>
   </g>
   <g id="PathCollection_5">
    <defs>
     <path d="M 0 4.472136 
C 1.186024 4.472136 2.323632 4.000923 3.162278 3.162278 
C 4.000923 2.323632 4.472136 1.186024 4.472136 0 
C 4.472136 -1.186024 4.000923 -2.323632 3.162278 -3.162278 
C 2.323632 -4.000923 1.186024 -4.472136 0 -4.472136 
C -1.186024 -4.472136 -2.323632 -4.000923 -3.162278 -3.162278 
C -4.000923 -2.323632 -4.472136 -1.186024 -4.472136 0 
C -4.472136 1.186024 -4.000923 2.323632 -3.162278 3.162278 
C -2.323632 4.000923 -1.186024 4.472136 0 4.472136 
z
" id="m1f08cfb125" style="stroke:#9467bd;"/>
    </defs>
    <g clip-path="url(#p6764085306)">
     <use style="fill:#9467bd;stroke:#9467bd;" x="348.564649" xlink:href="#m1f08cfb125" y="167.269284"/>
    </g>
   </g>
   <g id="PathCollection_6">
    <defs>
     <path d="M 0 4.472136 
C 1.186024 4.472136 2.323632 4.000923 3.162278 3.162278 
C 4.000923 2.323632 4.472136 1.186024 4.472136 0 
C 4.472136 -1.186024 4.000923 -2.323632 3.162278 -3.162278 
C 2.323632 -4.000923 1.186024 -4.472136 0 -4.472136 
C -1.186024 -4.472136 -2.323632 -4.000923 -3.162278 -3.162278 
C -4.000923 -2.323632 -4.472136 -1.186024 -4.472136 0 
C -4.472136 1.186024 -4.000923 2.323632 -3.162278 3.162278 
C -2.323632 4.000923 -1.186024 4.472136 0 4.472136 
z
" id="mc2db08e55e" style="stroke:#8c564b;"/>
    </defs>
    <g clip-path="url(#p6764085306)">
     <use style="fill:#8c564b;stroke:#8c564b;" x="496.735789" xlink:href="#mc2db08e55e" y="79.678619"/>
    </g>
   </g>
   <g id="PathCollection_7">
    <defs>
     <path d="M 0 4.472136 
C 1.186024 4.472136 2.323632 4.000923 3.162278 3.162278 
C 4.000923 2.323632 4.472136 1.186024 4.472136 0 
C 4.472136 -1.186024 4.000923 -2.323632 3.162278 -3.162278 
C 2.323632 -4.000923 1.186024 -4.472136 0 -4.472136 
C -1.186024 -4.472136 -2.323632 -4.000923 -3.162278 -3.162278 
C -4.000923 -2.323632 -4.472136 -1.186024 -4.472136 0 
C -4.472136 1.186024 -4.000923 2.323632 -3.162278 3.162278 
C -2.323632 4.000923 -1.186024 4.472136 0 4.472136 
z
" id="mbbbc1bca31" style="stroke:#e377c2;"/>
    </defs>
    <g clip-path="url(#p6764085306)">
     <use style="fill:#e377c2;stroke:#e377c2;" x="454.301684" xlink:href="#mbbbc1bca31" y="103.2389"/>
    </g>
   </g>
   <g id="PathCollection_8">
    <defs>
     <path d="M 0 4.472136 
C 1.186024 4.472136 2.323632 4.000923 3.162278 3.162278 
C 4.000923 2.323632 4.472136 1.186024 4.472136 0 
C 4.472136 -1.186024 4.000923 -2.323632 3.162278 -3.162278 
C 2.323632 -4.000923 1.186024 -4.472136 0 -4.472136 
C -1.186024 -4.472136 -2.323632 -4.000923 -3.162278 -3.162278 
C -4.000923 -2.323632 -4.472136 -1.186024 -4.472136 0 
C -4.472136 1.186024 -4.000923 2.323632 -3.162278 3.162278 
C -2.323632 4.000923 -1.186024 4.472136 0 4.472136 
z
" id="mc97c999aac" style="stroke:#7f7f7f;"/>
    </defs>
    <g clip-path="url(#p6764085306)">
     <use style="fill:#7f7f7f;stroke:#7f7f7f;" x="588.711523" xlink:href="#mc97c999aac" y="45.965707"/>
    </g>
   </g>
   <g id="PathCollection_9">
    <defs>
     <path d="M 0 4.472136 
C 1.186024 4.472136 2.323632 4.000923 3.162278 3.162278 
C 4.000923 2.323632 4.472136 1.186024 4.472136 0 
C 4.472136 -1.186024 4.000923 -2.323632 3.162278 -3.162278 
C 2.323632 -4.000923 1.186024 -4.472136 0 -4.472136 
C -1.186024 -4.472136 -2.323632 -4.000923 -3.162278 -3.162278 
C -4.000923 -2.323632 -4.472136 -1.186024 -4.472136 0 
C -4.472136 1.186024 -4.000923 2.323632 -3.162278 3.162278 
C -2.323632 4.000923 -1.186024 4.472136 0 4.472136 
z
" id="m54f0e1fa2b" style="stroke:#bcbd22;"/>
    </defs>
    <g clip-path="url(#p6764085306)">
     <use style="fill:#bcbd22;stroke:#bcbd22;" x="84.58902" xlink:href="#m54f0e1fa2b" y="426.96"/>
    </g>
   </g>
   <g id="PathCollection_10">
    <defs>
     <path d="M 0 4.472136 
C 1.186024 4.472136 2.323632 4.000923 3.162278 3.162278 
C 4.000923 2.323632 4.472136 1.186024 4.472136 0 
C 4.472136 -1.186024 4.000923 -2.323632 3.162278 -3.162278 
C 2.323632 -4.000923 1.186024 -4.472136 0 -4.472136 
C -1.186024 -4.472136 -2.323632 -4.000923 -3.162278 -3.162278 
C -4.000923 -2.323632 -4.472136 -1.186024 -4.472136 0 
C -4.472136 1.186024 -4.000923 2.323632 -3.162278 3.162278 
C -2.323632 4.000923 -1.186024 4.472136 0 4.472136 
z
" id="maee8810206" style="stroke:#17becf;"/>
    </defs>
    <g clip-path="url(#p6764085306)">
     <use style="fill:#17becf;stroke:#17becf;" x="124.923738" xlink:href="#maee8810206" y="375.791124"/>
    </g>
   </g>
   <g id="PathCollection_11">
    <g clip-path="url(#p6764085306)">
     <use style="fill:#1f77b4;stroke:#1f77b4;" x="293.230315" xlink:href="#mb86b386e4f" y="218.850798"/>
    </g>
   </g>
   <g id="PathCollection_12">
    <g clip-path="url(#p6764085306)">
     <use style="fill:#ff7f0e;stroke:#ff7f0e;" x="142.332452" xlink:href="#m533a6b8ec8" y="370.066503"/>
    </g>
   </g>
   <g id="PathCollection_13">
    <g clip-path="url(#p6764085306)">
     <use style="fill:#2ca02c;stroke:#2ca02c;" x="182.410748" xlink:href="#m648757a8ff" y="318.238042"/>
    </g>
   </g>
   <g id="PathCollection_14">
    <g clip-path="url(#p6764085306)">
     <use style="fill:#d62728;stroke:#d62728;" x="279.426278" xlink:href="#madf9b94623" y="227.459948"/>
    </g>
   </g>
   <g id="PathCollection_15">
    <g clip-path="url(#p6764085306)">
     <use style="fill:#9467bd;stroke:#9467bd;" x="317.550282" xlink:href="#m1f08cfb125" y="186.407411"/>
    </g>
   </g>
   <g id="PathCollection_16">
    <g clip-path="url(#p6764085306)">
     <use style="fill:#8c564b;stroke:#8c564b;" x="469.435315" xlink:href="#mc2db08e55e" y="90.879051"/>
    </g>
   </g>
   <g id="PathCollection_17">
    <g clip-path="url(#p6764085306)">
     <use style="fill:#e377c2;stroke:#e377c2;" x="333.839393" xlink:href="#mbbbc1bca31" y="180.740839"/>
    </g>
   </g>
   <g id="PathCollection_18">
    <g clip-path="url(#p6764085306)">
     <use style="fill:#7f7f7f;stroke:#7f7f7f;" x="370.549384" xlink:href="#mc97c999aac" y="146.488312"/>
    </g>
   </g>
   <g id="PathCollection_19">
    <g clip-path="url(#p6764085306)">
     <use style="fill:#bcbd22;stroke:#bcbd22;" x="515.805441" xlink:href="#m54f0e1fa2b" y="69.796825"/>
    </g>
   </g>
   <g id="PathCollection_20">
    <g clip-path="url(#p6764085306)">
     <use style="fill:#17becf;stroke:#17becf;" x="474.450312" xlink:href="#maee8810206" y="90.003221"/>
    </g>
   </g>
   <g id="PathCollection_21">
    <g clip-path="url(#p6764085306)">
     <use style="fill:#1f77b4;stroke:#1f77b4;" x="605.640107" xlink:href="#mb86b386e4f" y="40.265216"/>
    </g>
   </g>
   <g id="PathCollection_22">
    <g clip-path="url(#p6764085306)">
     <use style="fill:#ff7f0e;stroke:#ff7f0e;" x="121.667287" xlink:href="#m533a6b8ec8" y="380.183226"/>
    </g>
   </g>
   <g id="PathCollection_23">
    <g clip-path="url(#p6764085306)">
     <use style="fill:#2ca02c;stroke:#2ca02c;" x="289.207237" xlink:href="#m648757a8ff" y="224.212218"/>
    </g>
   </g>
   <g id="PathCollection_24">
    <g clip-path="url(#p6764085306)">
     <use style="fill:#d62728;stroke:#d62728;" x="161.555641" xlink:href="#madf9b94623" y="328.935936"/>
    </g>
   </g>
   <g id="PathCollection_25">
    <g clip-path="url(#p6764085306)">
     <use style="fill:#9467bd;stroke:#9467bd;" x="239.976374" xlink:href="#m1f08cfb125" y="263.346003"/>
    </g>
   </g>
   <g id="PathCollection_26">
    <g clip-path="url(#p6764085306)">
     <use style="fill:#8c564b;stroke:#8c564b;" x="326.639535" xlink:href="#mc2db08e55e" y="184.659836"/>
    </g>
   </g>
   <g id="PathCollection_27">
    <g clip-path="url(#p6764085306)">
     <use style="fill:#e377c2;stroke:#e377c2;" x="178.845642" xlink:href="#mbbbc1bca31" y="323.254532"/>
    </g>
   </g>
   <g id="PathCollection_28">
    <g clip-path="url(#p6764085306)">
     <use style="fill:#7f7f7f;stroke:#7f7f7f;" x="218.203213" xlink:href="#mc97c999aac" y="273.923764"/>
    </g>
   </g>
   <g id="PathCollection_29">
    <g clip-path="url(#p6764085306)">
     <use style="fill:#bcbd22;stroke:#bcbd22;" x="277.87614" xlink:href="#m54f0e1fa2b" y="229.939947"/>
    </g>
   </g>
   <g id="PathCollection_30">
    <g clip-path="url(#p6764085306)">
     <use style="fill:#17becf;stroke:#17becf;" x="331.943139" xlink:href="#maee8810206" y="184.443246"/>
    </g>
   </g>
   <g id="PathCollection_31">
    <g clip-path="url(#p6764085306)">
     <use style="fill:#1f77b4;stroke:#1f77b4;" x="313.472332" xlink:href="#mb86b386e4f" y="191.541455"/>
    </g>
   </g>
   <g id="PathCollection_32">
    <g clip-path="url(#p6764085306)">
     <use style="fill:#ff7f0e;stroke:#ff7f0e;" x="465.143153" xlink:href="#m533a6b8ec8" y="94.862097"/>
    </g>
   </g>
   <g id="PathCollection_33">
    <g clip-path="url(#p6764085306)">
     <use style="fill:#2ca02c;stroke:#2ca02c;" x="350.335859" xlink:href="#m648757a8ff" y="156.368375"/>
    </g>
   </g>
   <g id="PathCollection_34">
    <g clip-path="url(#p6764085306)">
     <use style="fill:#d62728;stroke:#d62728;" x="420.753701" xlink:href="#madf9b94623" y="119.521266"/>
    </g>
   </g>
   <g id="PathCollection_35">
    <g clip-path="url(#p6764085306)">
     <use style="fill:#9467bd;stroke:#9467bd;" x="497.074519" xlink:href="#m1f08cfb125" y="76.954946"/>
    </g>
   </g>
   <g id="PathCollection_36">
    <g clip-path="url(#p6764085306)">
     <use style="fill:#8c564b;stroke:#8c564b;" x="366.365383" xlink:href="#mc2db08e55e" y="151.334035"/>
    </g>
   </g>
   <g id="PathCollection_37">
    <g clip-path="url(#p6764085306)">
     <use style="fill:#e377c2;stroke:#e377c2;" x="511.524359" xlink:href="#mbbbc1bca31" y="73.354837"/>
    </g>
   </g>
   <g id="PathCollection_38">
    <g clip-path="url(#p6764085306)">
     <use style="fill:#7f7f7f;stroke:#7f7f7f;" x="401.670858" xlink:href="#mc97c999aac" y="122.849002"/>
    </g>
   </g>
   <g id="PathCollection_39">
    <g clip-path="url(#p6764085306)">
     <use style="fill:#bcbd22;stroke:#bcbd22;" x="468.836998" xlink:href="#m54f0e1fa2b" y="94.38306"/>
    </g>
   </g>
   <g id="PathCollection_40">
    <g clip-path="url(#p6764085306)">
     <use style="fill:#17becf;stroke:#17becf;" x="541.638085" xlink:href="#maee8810206" y="59.618027"/>
    </g>
   </g>
   <g id="PathCollection_41">
    <g clip-path="url(#p6764085306)">
     <use style="fill:#1f77b4;stroke:#1f77b4;" x="455.239259" xlink:href="#mb86b386e4f" y="98.132576"/>
    </g>
   </g>
   <g id="PathCollection_42">
    <g clip-path="url(#p6764085306)">
     <use style="fill:#ff7f0e;stroke:#ff7f0e;" x="588.248276" xlink:href="#m533a6b8ec8" y="45.996935"/>
    </g>
   </g>
   <g id="PathCollection_43">
    <g clip-path="url(#p6764085306)">
     <use style="fill:#2ca02c;stroke:#2ca02c;" x="601.511506" xlink:href="#m648757a8ff" y="43.126532"/>
    </g>
   </g>
   <g id="PathCollection_44">
    <g clip-path="url(#p6764085306)">
     <use style="fill:#d62728;stroke:#d62728;" x="502.069466" xlink:href="#madf9b94623" y="75.958977"/>
    </g>
   </g>
   <g id="PathCollection_45">
    <g clip-path="url(#p6764085306)">
     <use style="fill:#9467bd;stroke:#9467bd;" x="628.151403" xlink:href="#m1f08cfb125" y="34.497626"/>
    </g>
   </g>
   <g id="PathCollection_46">
    <g clip-path="url(#p6764085306)">
     <use style="fill:#8c564b;stroke:#8c564b;" x="678.938736" xlink:href="#mc2db08e55e" y="26.898574"/>
    </g>
   </g>
   <g id="PathCollection_47">
    <g clip-path="url(#p6764085306)">
     <use style="fill:#e377c2;stroke:#e377c2;" x="145.098219" xlink:href="#mbbbc1bca31" y="348.826761"/>
    </g>
   </g>
   <g id="PathCollection_48">
    <g clip-path="url(#p6764085306)">
     <use style="fill:#7f7f7f;stroke:#7f7f7f;" x="311.849383" xlink:href="#mc97c999aac" y="198.696552"/>
    </g>
   </g>
   <g id="PathCollection_49">
    <g clip-path="url(#p6764085306)">
     <use style="fill:#bcbd22;stroke:#bcbd22;" x="185.001346" xlink:href="#m54f0e1fa2b" y="298.200321"/>
    </g>
   </g>
   <g id="PathCollection_50">
    <g clip-path="url(#p6764085306)">
     <use style="fill:#17becf;stroke:#17becf;" x="262.931396" xlink:href="#maee8810206" y="235.643482"/>
    </g>
   </g>
   <g id="PathCollection_51">
    <g clip-path="url(#p6764085306)">
     <use style="fill:#1f77b4;stroke:#1f77b4;" x="348.701302" xlink:href="#mb86b386e4f" y="163.123668"/>
    </g>
   </g>
   <g id="PathCollection_52">
    <g clip-path="url(#p6764085306)">
     <use style="fill:#ff7f0e;stroke:#ff7f0e;" x="202.233837" xlink:href="#m533a6b8ec8" y="292.356001"/>
    </g>
   </g>
   <g id="PathCollection_53">
    <g clip-path="url(#p6764085306)">
     <use style="fill:#2ca02c;stroke:#2ca02c;" x="241.387221" xlink:href="#m648757a8ff" y="245.291899"/>
    </g>
   </g>
   <g id="PathCollection_54">
    <g clip-path="url(#p6764085306)">
     <use style="fill:#d62728;stroke:#d62728;" x="317.16987" xlink:href="#madf9b94623" y="190.762255"/>
    </g>
   </g>
   <g id="PathCollection_55">
    <g clip-path="url(#p6764085306)">
     <use style="fill:#9467bd;stroke:#9467bd;" x="400.052657" xlink:href="#m1f08cfb125" y="129.294711"/>
    </g>
   </g>
   <g id="PathCollection_56">
    <g clip-path="url(#p6764085306)">
     <use style="fill:#8c564b;stroke:#8c564b;" x="300.691343" xlink:href="#mc2db08e55e" y="204.189882"/>
    </g>
   </g>
   <g id="PathCollection_57">
    <g clip-path="url(#p6764085306)">
     <use style="fill:#e377c2;stroke:#e377c2;" x="335.835368" xlink:href="#mbbbc1bca31" y="168.773002"/>
    </g>
   </g>
   <g id="PathCollection_58">
    <g clip-path="url(#p6764085306)">
     <use style="fill:#7f7f7f;stroke:#7f7f7f;" x="484.772607" xlink:href="#mc97c999aac" y="83.464337"/>
    </g>
   </g>
   <g id="PathCollection_59">
    <g clip-path="url(#p6764085306)">
     <use style="fill:#bcbd22;stroke:#bcbd22;" x="372.069448" xlink:href="#m54f0e1fa2b" y="137.638803"/>
    </g>
   </g>
   <g id="PathCollection_60">
    <g clip-path="url(#p6764085306)">
     <use style="fill:#17becf;stroke:#17becf;" x="441.072749" xlink:href="#maee8810206" y="105.878671"/>
    </g>
   </g>
   <g id="PathCollection_61">
    <g clip-path="url(#p6764085306)">
     <use style="fill:#1f77b4;stroke:#1f77b4;" x="515.881945" xlink:href="#mb86b386e4f" y="68.171848"/>
    </g>
   </g>
   <g id="PathCollection_62">
    <g clip-path="url(#p6764085306)">
     <use style="fill:#ff7f0e;stroke:#ff7f0e;" x="387.902171" xlink:href="#m533a6b8ec8" y="132.840817"/>
    </g>
   </g>
   <g id="PathCollection_63">
    <g clip-path="url(#p6764085306)">
     <use style="fill:#2ca02c;stroke:#2ca02c;" x="530.078529" xlink:href="#m648757a8ff" y="64.80682"/>
    </g>
   </g>
   <g id="PathCollection_64">
    <g clip-path="url(#p6764085306)">
     <use style="fill:#d62728;stroke:#d62728;" x="422.473204" xlink:href="#madf9b94623" y="108.145522"/>
    </g>
   </g>
   <g id="PathCollection_65">
    <g clip-path="url(#p6764085306)">
     <use style="fill:#9467bd;stroke:#9467bd;" x="559.383946" xlink:href="#m1f08cfb125" y="53.019009"/>
    </g>
   </g>
   <g id="PathCollection_66">
    <g clip-path="url(#p6764085306)">
     <use style="fill:#8c564b;stroke:#8c564b;" x="577.402586" xlink:href="#mc2db08e55e" y="50.358514"/>
    </g>
   </g>
   <g id="PathCollection_67">
    <g clip-path="url(#p6764085306)">
     <use style="fill:#e377c2;stroke:#e377c2;" x="475.098753" xlink:href="#mbbbc1bca31" y="86.399819"/>
    </g>
   </g>
   <g id="PathCollection_68">
    <g clip-path="url(#p6764085306)">
     <use style="fill:#7f7f7f;stroke:#7f7f7f;" x="604.976365" xlink:href="#mc97c999aac" y="40.808325"/>
    </g>
   </g>
   <g id="PathCollection_69">
    <g clip-path="url(#p6764085306)">
     <use style="fill:#bcbd22;stroke:#bcbd22;" x="489.797101" xlink:href="#m54f0e1fa2b" y="82.508028"/>
    </g>
   </g>
   <g id="PathCollection_70">
    <g clip-path="url(#p6764085306)">
     <use style="fill:#17becf;stroke:#17becf;" x="617.971038" xlink:href="#maee8810206" y="38.113788"/>
    </g>
   </g>
   <g id="PathCollection_71">
    <g clip-path="url(#p6764085306)">
     <use style="fill:#1f77b4;stroke:#1f77b4;" x="669.656902" xlink:href="#mb86b386e4f" y="29.951707"/>
    </g>
   </g>
   <g id="PathCollection_72">
    <g clip-path="url(#p6764085306)">
     <use style="fill:#ff7f0e;stroke:#ff7f0e;" x="520.855788" xlink:href="#m533a6b8ec8" y="67.132161"/>
    </g>
   </g>
   <g id="PathCollection_73">
    <g clip-path="url(#p6764085306)">
     <use style="fill:#2ca02c;stroke:#2ca02c;" x="643.86383" xlink:href="#m648757a8ff" y="30.497463"/>
    </g>
   </g>
   <g id="PathCollection_74">
    <g clip-path="url(#p6764085306)">
     <use style="fill:#d62728;stroke:#d62728;" x="693.316293" xlink:href="#madf9b94623" y="23.76"/>
    </g>
   </g>
   <g id="matplotlib.axis_1">
    <g id="xtick_1">
     <g id="line2d_1">
      <path clip-path="url(#p6764085306)" d="M 61.50948 447.12 
L 61.50948 3.6 
" style="fill:none;stroke:#808080;stroke-linecap:square;stroke-opacity:0.2;stroke-width:0.8;"/>
     </g>
     <g id="line2d_2">
      <defs>
       <path d="M 0 0 
L 0 -3.5 
" id="mf204eaf82d" style="stroke:#000000;stroke-width:0.8;"/>
      </defs>
      <g>
       <use style="stroke:#000000;stroke-width:0.8;" x="61.50948" xlink:href="#mf204eaf82d" y="447.12"/>
      </g>
     </g>
     <g id="text_1">
      <!-- 0 -->
      <g transform="translate(57.00948 463.11875)scale(0.18 -0.18)">
       <defs>
        <path d="M 3.609375 32.71875 
Q 3.609375 44.046875 7.03125 52.21875 
Q 10.453125 60.40625 16.109375 64.40625 
Q 20.515625 67.578125 25.203125 67.578125 
Q 32.8125 67.578125 38.875 59.8125 
Q 46.4375 50.203125 46.4375 33.734375 
Q 46.4375 22.21875 43.109375 14.15625 
Q 39.796875 6.109375 34.640625 2.46875 
Q 29.5 -1.171875 24.703125 -1.171875 
Q 15.234375 -1.171875 8.9375 10.015625 
Q 3.609375 19.4375 3.609375 32.71875 
z
M 13.1875 31.5 
Q 13.1875 17.828125 16.546875 9.1875 
Q 19.34375 1.90625 24.859375 1.90625 
Q 27.484375 1.90625 30.3125 4.265625 
Q 33.15625 6.640625 34.625 12.203125 
Q 36.859375 20.609375 36.859375 35.890625 
Q 36.859375 47.21875 34.515625 54.78125 
Q 32.765625 60.40625 29.984375 62.75 
Q 27.984375 64.359375 25.140625 64.359375 
Q 21.828125 64.359375 19.234375 61.375 
Q 15.71875 57.328125 14.453125 48.625 
Q 13.1875 39.9375 13.1875 31.5 
z
" id="TimesNewRomanPSMT-48"/>
       </defs>
       <use xlink:href="#TimesNewRomanPSMT-48"/>
      </g>
     </g>
    </g>
    <g id="xtick_2">
     <g id="line2d_3">
      <path clip-path="url(#p6764085306)" d="M 140.651993 447.12 
L 140.651993 3.6 
" style="fill:none;stroke:#808080;stroke-linecap:square;stroke-opacity:0.2;stroke-width:0.8;"/>
     </g>
     <g id="line2d_4">
      <g>
       <use style="stroke:#000000;stroke-width:0.8;" x="140.651993" xlink:href="#mf204eaf82d" y="447.12"/>
      </g>
     </g>
     <g id="text_2">
      <!-- 1000 -->
      <g transform="translate(122.651993 463.11875)scale(0.18 -0.18)">
       <defs>
        <path d="M 11.71875 59.71875 
L 27.828125 67.578125 
L 29.4375 67.578125 
L 29.4375 11.671875 
Q 29.4375 6.109375 29.90625 4.734375 
Q 30.375 3.375 31.828125 2.640625 
Q 33.296875 1.90625 37.796875 1.8125 
L 37.796875 0 
L 12.890625 0 
L 12.890625 1.8125 
Q 17.578125 1.90625 18.9375 2.609375 
Q 20.3125 3.328125 20.84375 4.515625 
Q 21.390625 5.71875 21.390625 11.671875 
L 21.390625 47.40625 
Q 21.390625 54.640625 20.90625 56.6875 
Q 20.5625 58.25 19.65625 58.984375 
Q 18.75 59.71875 17.484375 59.71875 
Q 15.671875 59.71875 12.453125 58.203125 
z
" id="TimesNewRomanPSMT-49"/>
       </defs>
       <use xlink:href="#TimesNewRomanPSMT-49"/>
       <use x="50" xlink:href="#TimesNewRomanPSMT-48"/>
       <use x="100" xlink:href="#TimesNewRomanPSMT-48"/>
       <use x="150" xlink:href="#TimesNewRomanPSMT-48"/>
      </g>
     </g>
    </g>
    <g id="xtick_3">
     <g id="line2d_5">
      <path clip-path="url(#p6764085306)" d="M 219.794505 447.12 
L 219.794505 3.6 
" style="fill:none;stroke:#808080;stroke-linecap:square;stroke-opacity:0.2;stroke-width:0.8;"/>
     </g>
     <g id="line2d_6">
      <g>
       <use style="stroke:#000000;stroke-width:0.8;" x="219.794505" xlink:href="#mf204eaf82d" y="447.12"/>
      </g>
     </g>
     <g id="text_3">
      <!-- 2000 -->
      <g transform="translate(201.794505 463.11875)scale(0.18 -0.18)">
       <defs>
        <path d="M 45.84375 12.75 
L 41.21875 0 
L 2.15625 0 
L 2.15625 1.8125 
Q 19.390625 17.53125 26.421875 27.484375 
Q 33.453125 37.453125 33.453125 45.703125 
Q 33.453125 52 29.59375 56.046875 
Q 25.734375 60.109375 20.359375 60.109375 
Q 15.484375 60.109375 11.59375 57.25 
Q 7.71875 54.390625 5.859375 48.875 
L 4.046875 48.875 
Q 5.28125 57.90625 10.328125 62.734375 
Q 15.375 67.578125 22.953125 67.578125 
Q 31 67.578125 36.390625 62.40625 
Q 41.796875 57.234375 41.796875 50.203125 
Q 41.796875 45.171875 39.453125 40.140625 
Q 35.84375 32.234375 27.734375 23.390625 
Q 15.578125 10.109375 12.546875 7.375 
L 29.828125 7.375 
Q 35.109375 7.375 37.234375 7.765625 
Q 39.359375 8.15625 41.0625 9.34375 
Q 42.78125 10.546875 44.046875 12.75 
z
" id="TimesNewRomanPSMT-50"/>
       </defs>
       <use xlink:href="#TimesNewRomanPSMT-50"/>
       <use x="50" xlink:href="#TimesNewRomanPSMT-48"/>
       <use x="100" xlink:href="#TimesNewRomanPSMT-48"/>
       <use x="150" xlink:href="#TimesNewRomanPSMT-48"/>
      </g>
     </g>
    </g>
    <g id="xtick_4">
     <g id="line2d_7">
      <path clip-path="url(#p6764085306)" d="M 298.937018 447.12 
L 298.937018 3.6 
" style="fill:none;stroke:#808080;stroke-linecap:square;stroke-opacity:0.2;stroke-width:0.8;"/>
     </g>
     <g id="line2d_8">
      <g>
       <use style="stroke:#000000;stroke-width:0.8;" x="298.937018" xlink:href="#mf204eaf82d" y="447.12"/>
      </g>
     </g>
     <g id="text_4">
      <!-- 3000 -->
      <g transform="translate(280.937018 463.11875)scale(0.18 -0.18)">
       <defs>
        <path d="M 5.078125 53.609375 
Q 7.90625 60.296875 12.21875 63.9375 
Q 16.546875 67.578125 23 67.578125 
Q 30.953125 67.578125 35.203125 62.40625 
Q 38.421875 58.546875 38.421875 54.15625 
Q 38.421875 46.921875 29.34375 39.203125 
Q 35.453125 36.8125 38.578125 32.375 
Q 41.703125 27.9375 41.703125 21.921875 
Q 41.703125 13.328125 36.234375 7.03125 
Q 29.109375 -1.171875 15.578125 -1.171875 
Q 8.890625 -1.171875 6.46875 0.484375 
Q 4.046875 2.15625 4.046875 4.046875 
Q 4.046875 5.46875 5.1875 6.546875 
Q 6.34375 7.625 7.953125 7.625 
Q 9.1875 7.625 10.453125 7.234375 
Q 11.28125 6.984375 14.203125 5.4375 
Q 17.140625 3.90625 18.265625 3.609375 
Q 20.0625 3.078125 22.125 3.078125 
Q 27.09375 3.078125 30.78125 6.9375 
Q 34.46875 10.796875 34.46875 16.0625 
Q 34.46875 19.921875 32.765625 23.578125 
Q 31.5 26.3125 29.984375 27.734375 
Q 27.875 29.6875 24.21875 31.265625 
Q 20.5625 32.859375 16.75 32.859375 
L 15.1875 32.859375 
L 15.1875 34.328125 
Q 19.046875 34.8125 22.921875 37.109375 
Q 26.8125 39.40625 28.5625 42.625 
Q 30.328125 45.84375 30.328125 49.703125 
Q 30.328125 54.734375 27.171875 57.828125 
Q 24.03125 60.9375 19.34375 60.9375 
Q 11.765625 60.9375 6.6875 52.828125 
z
" id="TimesNewRomanPSMT-51"/>
       </defs>
       <use xlink:href="#TimesNewRomanPSMT-51"/>
       <use x="50" xlink:href="#TimesNewRomanPSMT-48"/>
       <use x="100" xlink:href="#TimesNewRomanPSMT-48"/>
       <use x="150" xlink:href="#TimesNewRomanPSMT-48"/>
      </g>
     </g>
    </g>
    <g id="xtick_5">
     <g id="line2d_9">
      <path clip-path="url(#p6764085306)" d="M 378.07953 447.12 
L 378.07953 3.6 
" style="fill:none;stroke:#808080;stroke-linecap:square;stroke-opacity:0.2;stroke-width:0.8;"/>
     </g>
     <g id="line2d_10">
      <g>
       <use style="stroke:#000000;stroke-width:0.8;" x="378.07953" xlink:href="#mf204eaf82d" y="447.12"/>
      </g>
     </g>
     <g id="text_5">
      <!-- 4000 -->
      <g transform="translate(360.07953 463.11875)scale(0.18 -0.18)">
       <defs>
        <path d="M 46.53125 24.421875 
L 46.53125 17.484375 
L 37.640625 17.484375 
L 37.640625 0 
L 29.59375 0 
L 29.59375 17.484375 
L 1.5625 17.484375 
L 1.5625 23.734375 
L 32.28125 67.578125 
L 37.640625 67.578125 
L 37.640625 24.421875 
z
M 29.59375 24.421875 
L 29.59375 57.28125 
L 6.34375 24.421875 
z
" id="TimesNewRomanPSMT-52"/>
       </defs>
       <use xlink:href="#TimesNewRomanPSMT-52"/>
       <use x="50" xlink:href="#TimesNewRomanPSMT-48"/>
       <use x="100" xlink:href="#TimesNewRomanPSMT-48"/>
       <use x="150" xlink:href="#TimesNewRomanPSMT-48"/>
      </g>
     </g>
    </g>
    <g id="xtick_6">
     <g id="line2d_11">
      <path clip-path="url(#p6764085306)" d="M 457.222043 447.12 
L 457.222043 3.6 
" style="fill:none;stroke:#808080;stroke-linecap:square;stroke-opacity:0.2;stroke-width:0.8;"/>
     </g>
     <g id="line2d_12">
      <g>
       <use style="stroke:#000000;stroke-width:0.8;" x="457.222043" xlink:href="#mf204eaf82d" y="447.12"/>
      </g>
     </g>
     <g id="text_6">
      <!-- 5000 -->
      <g transform="translate(439.222043 463.11875)scale(0.18 -0.18)">
       <defs>
        <path d="M 43.40625 66.21875 
L 39.59375 57.90625 
L 19.671875 57.90625 
L 15.328125 49.03125 
Q 28.265625 47.125 35.84375 39.40625 
Q 42.328125 32.765625 42.328125 23.78125 
Q 42.328125 18.5625 40.203125 14.109375 
Q 38.09375 9.671875 34.859375 6.546875 
Q 31.640625 3.421875 27.6875 1.515625 
Q 22.078125 -1.171875 16.15625 -1.171875 
Q 10.203125 -1.171875 7.484375 0.84375 
Q 4.78125 2.875 4.78125 5.328125 
Q 4.78125 6.6875 5.90625 7.734375 
Q 7.03125 8.796875 8.734375 8.796875 
Q 10.015625 8.796875 10.96875 8.40625 
Q 11.921875 8.015625 14.203125 6.390625 
Q 17.875 3.859375 21.625 3.859375 
Q 27.34375 3.859375 31.65625 8.171875 
Q 35.984375 12.5 35.984375 18.703125 
Q 35.984375 24.703125 32.125 29.90625 
Q 28.265625 35.109375 21.484375 37.9375 
Q 16.15625 40.140625 6.984375 40.484375 
L 19.671875 66.21875 
z
" id="TimesNewRomanPSMT-53"/>
       </defs>
       <use xlink:href="#TimesNewRomanPSMT-53"/>
       <use x="50" xlink:href="#TimesNewRomanPSMT-48"/>
       <use x="100" xlink:href="#TimesNewRomanPSMT-48"/>
       <use x="150" xlink:href="#TimesNewRomanPSMT-48"/>
      </g>
     </g>
    </g>
    <g id="xtick_7">
     <g id="line2d_13">
      <path clip-path="url(#p6764085306)" d="M 536.364555 447.12 
L 536.364555 3.6 
" style="fill:none;stroke:#808080;stroke-linecap:square;stroke-opacity:0.2;stroke-width:0.8;"/>
     </g>
     <g id="line2d_14">
      <g>
       <use style="stroke:#000000;stroke-width:0.8;" x="536.364555" xlink:href="#mf204eaf82d" y="447.12"/>
      </g>
     </g>
     <g id="text_7">
      <!-- 6000 -->
      <g transform="translate(518.364555 463.11875)scale(0.18 -0.18)">
       <defs>
        <path d="M 44.828125 67.578125 
L 44.828125 65.765625 
Q 38.375 65.140625 34.296875 63.203125 
Q 30.21875 61.28125 26.234375 57.328125 
Q 22.265625 53.375 19.65625 48.515625 
Q 17.046875 43.65625 15.28125 36.96875 
Q 22.3125 41.796875 29.390625 41.796875 
Q 36.1875 41.796875 41.15625 36.328125 
Q 46.140625 30.859375 46.140625 22.265625 
Q 46.140625 13.96875 41.109375 7.125 
Q 35.0625 -1.171875 25.09375 -1.171875 
Q 18.3125 -1.171875 13.578125 3.328125 
Q 4.296875 12.0625 4.296875 25.984375 
Q 4.296875 34.859375 7.859375 42.859375 
Q 11.421875 50.875 18.03125 57.078125 
Q 24.65625 63.28125 30.703125 65.421875 
Q 36.765625 67.578125 42 67.578125 
z
M 14.453125 33.40625 
Q 13.578125 26.8125 13.578125 22.75 
Q 13.578125 18.0625 15.3125 12.5625 
Q 17.046875 7.078125 20.453125 3.859375 
Q 22.953125 1.5625 26.515625 1.5625 
Q 30.765625 1.5625 34.109375 5.5625 
Q 37.453125 9.578125 37.453125 17 
Q 37.453125 25.34375 34.125 31.4375 
Q 30.8125 37.546875 24.703125 37.546875 
Q 22.859375 37.546875 20.734375 36.765625 
Q 18.609375 35.984375 14.453125 33.40625 
z
" id="TimesNewRomanPSMT-54"/>
       </defs>
       <use xlink:href="#TimesNewRomanPSMT-54"/>
       <use x="50" xlink:href="#TimesNewRomanPSMT-48"/>
       <use x="100" xlink:href="#TimesNewRomanPSMT-48"/>
       <use x="150" xlink:href="#TimesNewRomanPSMT-48"/>
      </g>
     </g>
    </g>
    <g id="xtick_8">
     <g id="line2d_15">
      <path clip-path="url(#p6764085306)" d="M 615.507068 447.12 
L 615.507068 3.6 
" style="fill:none;stroke:#808080;stroke-linecap:square;stroke-opacity:0.2;stroke-width:0.8;"/>
     </g>
     <g id="line2d_16">
      <g>
       <use style="stroke:#000000;stroke-width:0.8;" x="615.507068" xlink:href="#mf204eaf82d" y="447.12"/>
      </g>
     </g>
     <g id="text_8">
      <!-- 7000 -->
      <g transform="translate(597.507068 463.11875)scale(0.18 -0.18)">
       <defs>
        <path d="M 10.0625 66.21875 
L 45.5625 66.21875 
L 45.5625 64.359375 
L 23.484375 -1.375 
L 18.015625 -1.375 
L 37.796875 58.25 
L 19.578125 58.25 
Q 14.0625 58.25 11.71875 56.9375 
Q 7.625 54.6875 5.125 50 
L 3.71875 50.53125 
z
" id="TimesNewRomanPSMT-55"/>
       </defs>
       <use xlink:href="#TimesNewRomanPSMT-55"/>
       <use x="50" xlink:href="#TimesNewRomanPSMT-48"/>
       <use x="100" xlink:href="#TimesNewRomanPSMT-48"/>
       <use x="150" xlink:href="#TimesNewRomanPSMT-48"/>
      </g>
     </g>
    </g>
    <g id="xtick_9">
     <g id="line2d_17">
      <path clip-path="url(#p6764085306)" d="M 694.64958 447.12 
L 694.64958 3.6 
" style="fill:none;stroke:#808080;stroke-linecap:square;stroke-opacity:0.2;stroke-width:0.8;"/>
     </g>
     <g id="line2d_18">
      <g>
       <use style="stroke:#000000;stroke-width:0.8;" x="694.64958" xlink:href="#mf204eaf82d" y="447.12"/>
      </g>
     </g>
     <g id="text_9">
      <!-- 8000 -->
      <g transform="translate(676.64958 463.11875)scale(0.18 -0.18)">
       <defs>
        <path d="M 19.1875 33.34375 
Q 11.328125 39.796875 9.046875 43.703125 
Q 6.78125 47.609375 6.78125 51.8125 
Q 6.78125 58.25 11.765625 62.90625 
Q 16.75 67.578125 25 67.578125 
Q 33.015625 67.578125 37.890625 63.234375 
Q 42.78125 58.890625 42.78125 53.328125 
Q 42.78125 49.609375 40.140625 45.75 
Q 37.5 41.890625 29.15625 36.671875 
Q 37.75 30.03125 40.53125 26.21875 
Q 44.234375 21.234375 44.234375 15.71875 
Q 44.234375 8.734375 38.90625 3.78125 
Q 33.59375 -1.171875 24.953125 -1.171875 
Q 15.53125 -1.171875 10.25 4.734375 
Q 6.0625 9.46875 6.0625 15.09375 
Q 6.0625 19.484375 9.015625 23.796875 
Q 11.96875 28.125 19.1875 33.34375 
z
M 26.859375 38.578125 
Q 32.71875 43.84375 34.28125 46.890625 
Q 35.84375 49.953125 35.84375 53.8125 
Q 35.84375 58.9375 32.953125 61.84375 
Q 30.078125 64.75 25.09375 64.75 
Q 20.125 64.75 17 61.859375 
Q 13.875 58.984375 13.875 55.125 
Q 13.875 52.59375 15.15625 50.046875 
Q 16.453125 47.515625 18.84375 45.21875 
z
M 21.484375 31.5 
Q 17.4375 28.078125 15.484375 24.046875 
Q 13.53125 20.015625 13.53125 15.328125 
Q 13.53125 9.03125 16.96875 5.25 
Q 20.40625 1.46875 25.734375 1.46875 
Q 31 1.46875 34.171875 4.4375 
Q 37.359375 7.421875 37.359375 11.671875 
Q 37.359375 15.1875 35.5 17.96875 
Q 32.03125 23.140625 21.484375 31.5 
z
" id="TimesNewRomanPSMT-56"/>
       </defs>
       <use xlink:href="#TimesNewRomanPSMT-56"/>
       <use x="50" xlink:href="#TimesNewRomanPSMT-48"/>
       <use x="100" xlink:href="#TimesNewRomanPSMT-48"/>
       <use x="150" xlink:href="#TimesNewRomanPSMT-48"/>
      </g>
     </g>
    </g>
    <g id="text_10">
     <!-- Increments in cumulative confirmed cases -->
     <g transform="translate(182.825938 486.199375)scale(0.23 -0.23)">
      <defs>
       <path d="M 36.625 1.8125 
L 36.625 0 
L 2 0 
L 2 1.8125 
L 4.203125 1.8125 
Q 7.078125 1.8125 8.84375 2.828125 
Q 10.109375 3.515625 10.796875 5.171875 
Q 11.328125 6.34375 11.328125 11.328125 
L 11.328125 54.890625 
Q 11.328125 59.96875 10.78125 61.234375 
Q 10.25 62.5 8.609375 63.453125 
Q 6.984375 64.40625 4.203125 64.40625 
L 2 64.40625 
L 2 66.21875 
L 36.625 66.21875 
L 36.625 64.40625 
L 34.421875 64.40625 
Q 31.546875 64.40625 29.78125 63.375 
Q 28.515625 62.703125 27.78125 61.03125 
Q 27.25 59.859375 27.25 54.890625 
L 27.25 11.328125 
Q 27.25 6.25 27.8125 4.984375 
Q 28.375 3.71875 30 2.765625 
Q 31.640625 1.8125 34.421875 1.8125 
z
" id="TimesNewRomanPS-BoldMT-73"/>
       <path d="M 22.015625 45.65625 
L 22.015625 39.75 
Q 25.53125 43.5625 28.75 45.28125 
Q 31.984375 47.015625 35.6875 47.015625 
Q 40.140625 47.015625 43.0625 44.546875 
Q 46 42.09375 46.96875 38.421875 
Q 47.75 35.640625 47.75 27.734375 
L 47.75 9.96875 
Q 47.75 4.6875 48.703125 3.390625 
Q 49.65625 2.09375 52.6875 1.765625 
L 52.6875 0 
L 29.59375 0 
L 29.59375 1.765625 
Q 32.171875 2.09375 33.296875 3.90625 
Q 34.078125 5.125 34.078125 9.96875 
L 34.078125 30.28125 
Q 34.078125 35.890625 33.640625 37.34375 
Q 33.203125 38.8125 32.15625 39.625 
Q 31.109375 40.4375 29.828125 40.4375 
Q 25.640625 40.4375 22.015625 34.421875 
L 22.015625 9.96875 
Q 22.015625 4.828125 22.96875 3.453125 
Q 23.921875 2.09375 26.515625 1.765625 
L 26.515625 0 
L 3.421875 0 
L 3.421875 1.765625 
Q 6.296875 2.046875 7.515625 3.609375 
Q 8.34375 4.6875 8.34375 9.96875 
L 8.34375 35.75 
Q 8.34375 40.921875 7.390625 42.1875 
Q 6.453125 43.453125 3.421875 43.84375 
L 3.421875 45.65625 
z
" id="TimesNewRomanPS-BoldMT-110"/>
       <path d="M 40.625 11.765625 
L 42.140625 10.59375 
Q 38.921875 4.546875 34.109375 1.578125 
Q 29.296875 -1.375 23.875 -1.375 
Q 14.75 -1.375 9.28125 5.515625 
Q 3.8125 12.40625 3.8125 22.078125 
Q 3.8125 31.390625 8.796875 38.484375 
Q 14.796875 47.015625 25.34375 47.015625 
Q 32.421875 47.015625 36.59375 43.453125 
Q 40.765625 39.890625 40.765625 35.5 
Q 40.765625 32.71875 39.078125 31.046875 
Q 37.40625 29.390625 34.671875 29.390625 
Q 31.78125 29.390625 29.90625 31.296875 
Q 28.03125 33.203125 27.59375 38.09375 
Q 27.296875 41.15625 26.171875 42.390625 
Q 25.046875 43.609375 23.53125 43.609375 
Q 21.1875 43.609375 19.53125 41.109375 
Q 17 37.359375 17 29.59375 
Q 17 23.140625 19.046875 17.25 
Q 21.09375 11.375 24.65625 8.5 
Q 27.34375 6.390625 31 6.390625 
Q 33.40625 6.390625 35.546875 7.515625 
Q 37.703125 8.640625 40.625 11.765625 
z
" id="TimesNewRomanPS-BoldMT-99"/>
       <path d="M 22.3125 45.65625 
L 22.3125 35.296875 
Q 26.859375 42.390625 30.265625 44.703125 
Q 33.6875 47.015625 36.859375 47.015625 
Q 39.59375 47.015625 41.234375 45.328125 
Q 42.875 43.65625 42.875 40.578125 
Q 42.875 37.3125 41.28125 35.5 
Q 39.703125 33.6875 37.453125 33.6875 
Q 34.859375 33.6875 32.953125 35.34375 
Q 31.0625 37.015625 30.71875 37.203125 
Q 30.21875 37.5 29.59375 37.5 
Q 28.171875 37.5 26.90625 36.421875 
Q 24.90625 34.765625 23.875 31.6875 
Q 22.3125 26.953125 22.3125 21.234375 
L 22.3125 10.75 
L 22.359375 8.015625 
Q 22.359375 5.21875 22.703125 4.4375 
Q 23.296875 3.125 24.4375 2.515625 
Q 25.59375 1.90625 28.328125 1.765625 
L 28.328125 0 
L 3.65625 0 
L 3.65625 1.765625 
Q 6.640625 2 7.6875 3.390625 
Q 8.734375 4.78125 8.734375 10.75 
L 8.734375 35.984375 
Q 8.734375 39.890625 8.34375 40.96875 
Q 7.859375 42.328125 6.921875 42.96875 
Q 6 43.609375 3.65625 43.84375 
L 3.65625 45.65625 
z
" id="TimesNewRomanPS-BoldMT-114"/>
       <path d="M 42.046875 24.46875 
L 17 24.46875 
Q 17.4375 15.375 21.828125 10.109375 
Q 25.203125 6.0625 29.9375 6.0625 
Q 32.859375 6.0625 35.25 7.6875 
Q 37.640625 9.328125 40.375 13.578125 
L 42.046875 12.5 
Q 38.328125 4.9375 33.828125 1.78125 
Q 29.34375 -1.375 23.4375 -1.375 
Q 13.28125 -1.375 8.0625 6.453125 
Q 3.859375 12.75 3.859375 22.078125 
Q 3.859375 33.5 10.03125 40.25 
Q 16.21875 47.015625 24.515625 47.015625 
Q 31.453125 47.015625 36.546875 41.328125 
Q 41.65625 35.640625 42.046875 24.46875 
z
M 30.03125 27.734375 
Q 30.03125 35.59375 29.171875 38.515625 
Q 28.328125 41.453125 26.515625 42.96875 
Q 25.484375 43.84375 23.78125 43.84375 
Q 21.234375 43.84375 19.625 41.359375 
Q 16.75 37.015625 16.75 29.4375 
L 16.75 27.734375 
z
" id="TimesNewRomanPS-BoldMT-101"/>
       <path d="M 22.3125 45.65625 
L 22.3125 39.65625 
Q 26.078125 43.75 29.265625 45.375 
Q 32.46875 47.015625 36.28125 47.015625 
Q 40.671875 47.015625 43.640625 44.96875 
Q 46.625 42.921875 48.25 38.71875 
Q 52.15625 43.109375 55.734375 45.0625 
Q 59.328125 47.015625 63.234375 47.015625 
Q 67.96875 47.015625 70.765625 44.84375 
Q 73.578125 42.671875 74.671875 39.328125 
Q 75.78125 35.984375 75.78125 28.65625 
L 75.78125 9.96875 
Q 75.78125 4.6875 76.734375 3.421875 
Q 77.6875 2.15625 80.71875 1.765625 
L 80.71875 0 
L 57.125 0 
L 57.125 1.765625 
Q 59.90625 2 61.234375 3.90625 
Q 62.109375 5.21875 62.109375 9.96875 
L 62.109375 29.59375 
Q 62.109375 35.6875 61.625 37.34375 
Q 61.140625 39.015625 60.078125 39.8125 
Q 59.03125 40.625 57.625 40.625 
Q 55.515625 40.625 53.359375 39.078125 
Q 51.21875 37.546875 49.03125 34.46875 
L 49.03125 9.96875 
Q 49.03125 5.03125 49.859375 3.765625 
Q 50.984375 1.953125 54.15625 1.765625 
L 54.15625 0 
L 30.515625 0 
L 30.515625 1.765625 
Q 32.421875 1.859375 33.515625 2.703125 
Q 34.625 3.5625 34.984375 4.75 
Q 35.359375 5.953125 35.359375 9.96875 
L 35.359375 29.59375 
Q 35.359375 35.796875 34.859375 37.359375 
Q 34.375 38.921875 33.21875 39.796875 
Q 32.078125 40.671875 30.765625 40.671875 
Q 28.8125 40.671875 27.203125 39.65625 
Q 24.90625 38.140625 22.3125 34.46875 
L 22.3125 9.96875 
Q 22.3125 5.125 23.265625 3.578125 
Q 24.21875 2.046875 27.25 1.765625 
L 27.25 0 
L 3.71875 0 
L 3.71875 1.765625 
Q 6.59375 2.046875 7.8125 3.609375 
Q 8.640625 4.6875 8.640625 9.96875 
L 8.640625 35.75 
Q 8.640625 40.921875 7.6875 42.1875 
Q 6.734375 43.453125 3.71875 43.84375 
L 3.71875 45.65625 
z
" id="TimesNewRomanPS-BoldMT-109"/>
       <path d="M 21.484375 62.359375 
L 21.484375 45.65625 
L 32.328125 45.65625 
L 32.328125 40.828125 
L 21.484375 40.828125 
L 21.484375 12.640625 
Q 21.484375 8.6875 21.84375 7.53125 
Q 22.21875 6.390625 23.140625 5.6875 
Q 24.078125 4.984375 24.859375 4.984375 
Q 28.03125 4.984375 30.859375 9.8125 
L 32.328125 8.734375 
Q 28.375 -0.640625 19.484375 -0.640625 
Q 15.140625 -0.640625 12.125 1.78125 
Q 9.125 4.203125 8.296875 7.171875 
Q 7.8125 8.84375 7.8125 16.15625 
L 7.8125 40.828125 
L 1.859375 40.828125 
L 1.859375 42.53125 
Q 8.015625 46.875 12.328125 51.65625 
Q 16.65625 56.453125 19.875 62.359375 
z
" id="TimesNewRomanPS-BoldMT-116"/>
       <path d="M 32.234375 46.921875 
L 32.953125 31.34375 
L 31.296875 31.34375 
Q 28.328125 38.28125 25.125 40.8125 
Q 21.921875 43.359375 18.75 43.359375 
Q 16.75 43.359375 15.328125 42.015625 
Q 13.921875 40.671875 13.921875 38.921875 
Q 13.921875 37.59375 14.890625 36.375 
Q 16.453125 34.375 23.625 29.515625 
Q 30.8125 24.65625 33.078125 21.265625 
Q 35.359375 17.875 35.359375 13.671875 
Q 35.359375 9.859375 33.453125 6.203125 
Q 31.546875 2.546875 28.078125 0.578125 
Q 24.609375 -1.375 20.40625 -1.375 
Q 17.140625 -1.375 11.671875 0.6875 
Q 10.203125 1.21875 9.671875 1.21875 
Q 8.0625 1.21875 6.984375 -1.21875 
L 5.375 -1.21875 
L 4.59375 15.1875 
L 6.25 15.1875 
Q 8.453125 8.734375 12.28125 5.515625 
Q 16.109375 2.296875 19.53125 2.296875 
Q 21.875 2.296875 23.359375 3.734375 
Q 24.859375 5.171875 24.859375 7.234375 
Q 24.859375 9.578125 23.390625 11.28125 
Q 21.921875 12.984375 16.84375 16.453125 
Q 9.375 21.625 7.171875 24.359375 
Q 3.953125 28.375 3.953125 33.203125 
Q 3.953125 38.484375 7.59375 42.75 
Q 11.234375 47.015625 18.109375 47.015625 
Q 21.828125 47.015625 25.296875 45.21875 
Q 26.609375 44.484375 27.4375 44.484375 
Q 28.328125 44.484375 28.859375 44.84375 
Q 29.390625 45.21875 30.5625 46.921875 
z
" id="TimesNewRomanPS-BoldMT-115"/>
       <path id="TimesNewRomanPS-BoldMT-32"/>
       <path d="M 14.359375 67.78125 
Q 17.53125 67.78125 19.71875 65.546875 
Q 21.921875 63.328125 21.921875 60.203125 
Q 21.921875 57.078125 19.703125 54.875 
Q 17.484375 52.6875 14.359375 52.6875 
Q 11.234375 52.6875 9.03125 54.875 
Q 6.84375 57.078125 6.84375 60.203125 
Q 6.84375 63.328125 9.03125 65.546875 
Q 11.234375 67.78125 14.359375 67.78125 
z
M 21.1875 45.65625 
L 21.1875 9.46875 
Q 21.1875 4.640625 22.3125 3.296875 
Q 23.4375 1.953125 26.703125 1.765625 
L 26.703125 0 
L 2.046875 0 
L 2.046875 1.765625 
Q 5.078125 1.859375 6.546875 3.515625 
Q 7.515625 4.640625 7.515625 9.46875 
L 7.515625 36.140625 
Q 7.515625 40.96875 6.390625 42.3125 
Q 5.28125 43.65625 2.046875 43.84375 
L 2.046875 45.65625 
z
" id="TimesNewRomanPS-BoldMT-105"/>
       <path d="M 47.46875 45.65625 
L 47.46875 9.90625 
Q 47.46875 4.6875 48.4375 3.390625 
Q 49.421875 2.09375 52.390625 1.765625 
L 52.390625 0 
L 33.796875 0 
L 33.796875 6.109375 
Q 30.515625 2.203125 27.234375 0.40625 
Q 23.96875 -1.375 19.921875 -1.375 
Q 16.0625 -1.375 13.0625 1 
Q 10.0625 3.375 9.03125 6.546875 
Q 8.015625 9.71875 8.015625 17.625 
L 8.015625 35.75 
Q 8.015625 40.921875 7.0625 42.1875 
Q 6.109375 43.453125 3.078125 43.84375 
L 3.078125 45.65625 
L 21.6875 45.65625 
L 21.6875 14.453125 
Q 21.6875 9.578125 22.140625 8.15625 
Q 22.609375 6.734375 23.609375 6 
Q 24.609375 5.28125 25.921875 5.28125 
Q 27.6875 5.28125 29.109375 6.203125 
Q 31.0625 7.46875 33.796875 11.328125 
L 33.796875 35.75 
Q 33.796875 40.921875 32.84375 42.1875 
Q 31.890625 43.453125 28.859375 43.84375 
L 28.859375 45.65625 
z
" id="TimesNewRomanPS-BoldMT-117"/>
       <path d="M 21.234375 66.21875 
L 21.234375 9.46875 
Q 21.234375 4.640625 22.359375 3.296875 
Q 23.484375 1.953125 26.765625 1.765625 
L 26.765625 0 
L 2.09375 0 
L 2.09375 1.765625 
Q 5.125 1.859375 6.59375 3.515625 
Q 7.5625 4.640625 7.5625 9.46875 
L 7.5625 56.734375 
Q 7.5625 61.53125 6.4375 62.859375 
Q 5.328125 64.203125 2.09375 64.40625 
L 2.09375 66.21875 
z
" id="TimesNewRomanPS-BoldMT-108"/>
       <path d="M 28.5625 6.734375 
Q 20.21875 -0.640625 13.578125 -0.640625 
Q 9.671875 -0.640625 7.078125 1.921875 
Q 4.5 4.5 4.5 8.34375 
Q 4.5 13.578125 8.984375 17.75 
Q 13.484375 21.921875 28.5625 28.859375 
L 28.5625 33.453125 
Q 28.5625 38.625 28 39.96875 
Q 27.4375 41.3125 25.875 42.3125 
Q 24.3125 43.3125 22.359375 43.3125 
Q 19.1875 43.3125 17.140625 41.890625 
Q 15.875 41.015625 15.875 39.84375 
Q 15.875 38.8125 17.234375 37.3125 
Q 19.09375 35.203125 19.09375 33.25 
Q 19.09375 30.859375 17.3125 29.171875 
Q 15.53125 27.484375 12.640625 27.484375 
Q 9.578125 27.484375 7.5 29.34375 
Q 5.421875 31.203125 5.421875 33.6875 
Q 5.421875 37.203125 8.203125 40.40625 
Q 10.984375 43.609375 15.96875 45.3125 
Q 20.953125 47.015625 26.3125 47.015625 
Q 32.8125 47.015625 36.59375 44.25 
Q 40.375 41.5 41.5 38.28125 
Q 42.1875 36.234375 42.1875 28.859375 
L 42.1875 11.140625 
Q 42.1875 8.015625 42.421875 7.203125 
Q 42.671875 6.390625 43.15625 6 
Q 43.65625 5.609375 44.28125 5.609375 
Q 45.5625 5.609375 46.875 7.421875 
L 48.34375 6.25 
Q 45.90625 2.640625 43.28125 1 
Q 40.671875 -0.640625 37.359375 -0.640625 
Q 33.453125 -0.640625 31.25 1.1875 
Q 29.046875 3.03125 28.5625 6.734375 
z
M 28.5625 10.296875 
L 28.5625 25.59375 
Q 22.65625 22.125 19.78125 18.171875 
Q 17.875 15.53125 17.875 12.84375 
Q 17.875 10.59375 19.484375 8.890625 
Q 20.703125 7.5625 22.90625 7.5625 
Q 25.34375 7.5625 28.5625 10.296875 
z
" id="TimesNewRomanPS-BoldMT-97"/>
       <path d="M 23.96875 -1.375 
L 8.59375 34.03125 
Q 5.8125 40.4375 4.25 42.140625 
Q 3.125 43.40625 0.921875 43.84375 
L 0.921875 45.65625 
L 25.203125 45.65625 
L 25.203125 43.84375 
Q 22.90625 43.84375 22.078125 43.015625 
Q 20.90625 41.9375 20.90625 40.484375 
Q 20.90625 38.671875 23.046875 33.6875 
L 30.5625 16.546875 
L 36.578125 31.34375 
Q 39.15625 37.703125 39.15625 40.328125 
Q 39.15625 41.84375 38.0625 42.796875 
Q 36.96875 43.75 34.1875 43.84375 
L 34.1875 45.65625 
L 49.125 45.65625 
L 49.125 43.84375 
Q 46.96875 43.5625 45.59375 42.234375 
Q 44.234375 40.921875 41.5 34.46875 
L 26.265625 -1.375 
z
" id="TimesNewRomanPS-BoldMT-118"/>
       <path d="M 24.90625 47.015625 
Q 30.859375 47.015625 35.984375 43.9375 
Q 41.109375 40.875 43.765625 35.203125 
Q 46.4375 29.546875 46.4375 22.796875 
Q 46.4375 13.09375 41.5 6.546875 
Q 35.546875 -1.375 25.046875 -1.375 
Q 14.75 -1.375 9.171875 5.859375 
Q 3.609375 13.09375 3.609375 22.609375 
Q 3.609375 32.421875 9.296875 39.71875 
Q 14.984375 47.015625 24.90625 47.015625 
z
M 25.09375 43.5625 
Q 22.609375 43.5625 20.828125 41.671875 
Q 19.046875 39.796875 18.484375 34.25 
Q 17.921875 28.71875 17.921875 18.84375 
Q 17.921875 13.625 18.609375 9.078125 
Q 19.140625 5.609375 20.890625 3.796875 
Q 22.65625 2 24.90625 2 
Q 27.09375 2 28.5625 3.21875 
Q 30.46875 4.890625 31.109375 7.859375 
Q 32.078125 12.5 32.078125 26.609375 
Q 32.078125 34.90625 31.140625 38 
Q 30.21875 41.109375 28.421875 42.53125 
Q 27.15625 43.5625 25.09375 43.5625 
z
" id="TimesNewRomanPS-BoldMT-111"/>
       <path d="M 23.390625 40.875 
L 23.390625 9.1875 
Q 23.390625 4.59375 24.359375 3.421875 
Q 25.921875 1.609375 30.125 1.765625 
L 30.125 0 
L 3.21875 0 
L 3.21875 1.765625 
Q 6.296875 1.8125 7.59375 2.46875 
Q 8.890625 3.125 9.375 4.296875 
Q 9.859375 5.46875 9.859375 9.1875 
L 9.859375 40.875 
L 3.21875 40.875 
L 3.21875 45.65625 
L 9.859375 45.65625 
L 9.859375 49.03125 
L 9.8125 51.3125 
Q 9.8125 58.34375 14.96875 63.03125 
Q 20.125 67.71875 28.90625 67.71875 
Q 34.90625 67.71875 37.8125 65.46875 
Q 40.71875 63.234375 40.71875 60.5 
Q 40.71875 58.296875 38.90625 56.6875 
Q 37.109375 55.078125 34.125 55.078125 
Q 31.59375 55.078125 30.09375 56.390625 
Q 28.609375 57.71875 28.609375 59.328125 
Q 28.609375 59.765625 28.90625 61.140625 
Q 29.109375 61.96875 29.109375 62.703125 
Q 29.109375 63.71875 28.515625 64.203125 
Q 27.734375 64.9375 26.609375 64.9375 
Q 25.203125 64.9375 24.25 63.765625 
Q 23.296875 62.59375 23.296875 60.015625 
L 23.390625 51.46875 
L 23.390625 45.65625 
L 30.125 45.65625 
L 30.125 40.875 
z
" id="TimesNewRomanPS-BoldMT-102"/>
       <path d="M 47.75 66.21875 
L 47.75 13.671875 
Q 47.75 8.34375 48.046875 7.375 
Q 48.4375 5.765625 49.53125 4.984375 
Q 50.640625 4.203125 53.375 4 
L 53.375 2.390625 
L 34.078125 -1.375 
L 34.078125 5.859375 
Q 30.609375 1.65625 27.90625 0.140625 
Q 25.203125 -1.375 21.78125 -1.375 
Q 13.03125 -1.375 7.953125 6.453125 
Q 3.859375 12.796875 3.859375 22.015625 
Q 3.859375 29.390625 6.390625 35.21875 
Q 8.9375 41.0625 13.359375 44.03125 
Q 17.78125 47.015625 22.859375 47.015625 
Q 26.125 47.015625 28.65625 45.75 
Q 31.203125 44.484375 34.078125 41.3125 
L 34.078125 55.078125 
Q 34.078125 60.296875 33.640625 61.375 
Q 33.0625 62.796875 31.890625 63.46875 
Q 30.71875 64.15625 27.484375 64.15625 
L 27.484375 66.21875 
z
M 34.078125 35.25 
Q 30.46875 42.1875 25.25 42.1875 
Q 23.4375 42.1875 22.265625 41.21875 
Q 20.453125 39.703125 19.3125 35.890625 
Q 18.171875 32.078125 18.171875 24.21875 
Q 18.171875 15.578125 19.4375 11.421875 
Q 20.703125 7.28125 22.90625 5.421875 
Q 24.03125 4.5 25.984375 4.5 
Q 30.28125 4.5 34.078125 11.234375 
z
" id="TimesNewRomanPS-BoldMT-100"/>
      </defs>
      <use xlink:href="#TimesNewRomanPS-BoldMT-73"/>
      <use x="38.916016" xlink:href="#TimesNewRomanPS-BoldMT-110"/>
      <use x="94.53125" xlink:href="#TimesNewRomanPS-BoldMT-99"/>
      <use x="138.916016" xlink:href="#TimesNewRomanPS-BoldMT-114"/>
      <use x="181.550781" xlink:href="#TimesNewRomanPS-BoldMT-101"/>
      <use x="225.935547" xlink:href="#TimesNewRomanPS-BoldMT-109"/>
      <use x="309.236328" xlink:href="#TimesNewRomanPS-BoldMT-101"/>
      <use x="353.621094" xlink:href="#TimesNewRomanPS-BoldMT-110"/>
      <use x="409.236328" xlink:href="#TimesNewRomanPS-BoldMT-116"/>
      <use x="442.537109" xlink:href="#TimesNewRomanPS-BoldMT-115"/>
      <use x="481.453125" xlink:href="#TimesNewRomanPS-BoldMT-32"/>
      <use x="506.453125" xlink:href="#TimesNewRomanPS-BoldMT-105"/>
      <use x="534.236328" xlink:href="#TimesNewRomanPS-BoldMT-110"/>
      <use x="589.851562" xlink:href="#TimesNewRomanPS-BoldMT-32"/>
      <use x="614.851562" xlink:href="#TimesNewRomanPS-BoldMT-99"/>
      <use x="659.236328" xlink:href="#TimesNewRomanPS-BoldMT-117"/>
      <use x="714.851562" xlink:href="#TimesNewRomanPS-BoldMT-109"/>
      <use x="798.152344" xlink:href="#TimesNewRomanPS-BoldMT-117"/>
      <use x="853.767578" xlink:href="#TimesNewRomanPS-BoldMT-108"/>
      <use x="881.550781" xlink:href="#TimesNewRomanPS-BoldMT-97"/>
      <use x="931.550781" xlink:href="#TimesNewRomanPS-BoldMT-116"/>
      <use x="964.851562" xlink:href="#TimesNewRomanPS-BoldMT-105"/>
      <use x="992.634766" xlink:href="#TimesNewRomanPS-BoldMT-118"/>
      <use x="1042.634766" xlink:href="#TimesNewRomanPS-BoldMT-101"/>
      <use x="1087.019531" xlink:href="#TimesNewRomanPS-BoldMT-32"/>
      <use x="1112.019531" xlink:href="#TimesNewRomanPS-BoldMT-99"/>
      <use x="1156.404297" xlink:href="#TimesNewRomanPS-BoldMT-111"/>
      <use x="1206.404297" xlink:href="#TimesNewRomanPS-BoldMT-110"/>
      <use x="1262.019531" xlink:href="#TimesNewRomanPS-BoldMT-102"/>
      <use x="1295.320312" xlink:href="#TimesNewRomanPS-BoldMT-105"/>
      <use x="1323.103516" xlink:href="#TimesNewRomanPS-BoldMT-114"/>
      <use x="1367.488281" xlink:href="#TimesNewRomanPS-BoldMT-109"/>
      <use x="1450.789062" xlink:href="#TimesNewRomanPS-BoldMT-101"/>
      <use x="1495.173828" xlink:href="#TimesNewRomanPS-BoldMT-100"/>
      <use x="1550.789062" xlink:href="#TimesNewRomanPS-BoldMT-32"/>
      <use x="1575.789062" xlink:href="#TimesNewRomanPS-BoldMT-99"/>
      <use x="1620.173828" xlink:href="#TimesNewRomanPS-BoldMT-97"/>
      <use x="1670.173828" xlink:href="#TimesNewRomanPS-BoldMT-115"/>
      <use x="1709.089844" xlink:href="#TimesNewRomanPS-BoldMT-101"/>
      <use x="1753.474609" xlink:href="#TimesNewRomanPS-BoldMT-115"/>
     </g>
    </g>
   </g>
   <g id="matplotlib.axis_2">
    <g id="ytick_1">
     <g id="line2d_19">
      <path clip-path="url(#p6764085306)" d="M 54.152656 407.06092 
L 723.752656 407.06092 
" style="fill:none;stroke:#808080;stroke-linecap:square;stroke-opacity:0.2;stroke-width:0.8;"/>
     </g>
     <g id="line2d_20">
      <defs>
       <path d="M 0 0 
L 3.5 0 
" id="mca43505df6" style="stroke:#000000;stroke-width:0.8;"/>
      </defs>
      <g>
       <use style="stroke:#000000;stroke-width:0.8;" x="54.152656" xlink:href="#mca43505df6" y="407.06092"/>
      </g>
     </g>
     <g id="text_11">
      <!-- 0.2 -->
      <g transform="translate(28.152656 413.310295)scale(0.18 -0.18)">
       <defs>
        <path d="M 12.5 9.46875 
Q 14.796875 9.46875 16.359375 7.875 
Q 17.921875 6.296875 17.921875 4.046875 
Q 17.921875 1.8125 16.328125 0.21875 
Q 14.75 -1.375 12.5 -1.375 
Q 10.25 -1.375 8.65625 0.21875 
Q 7.078125 1.8125 7.078125 4.046875 
Q 7.078125 6.34375 8.65625 7.90625 
Q 10.25 9.46875 12.5 9.46875 
z
" id="TimesNewRomanPSMT-46"/>
       </defs>
       <use xlink:href="#TimesNewRomanPSMT-48"/>
       <use x="50" xlink:href="#TimesNewRomanPSMT-46"/>
       <use x="75" xlink:href="#TimesNewRomanPSMT-50"/>
      </g>
     </g>
    </g>
    <g id="ytick_2">
     <g id="line2d_21">
      <path clip-path="url(#p6764085306)" d="M 54.152656 357.568043 
L 723.752656 357.568043 
" style="fill:none;stroke:#808080;stroke-linecap:square;stroke-opacity:0.2;stroke-width:0.8;"/>
     </g>
     <g id="line2d_22">
      <g>
       <use style="stroke:#000000;stroke-width:0.8;" x="54.152656" xlink:href="#mca43505df6" y="357.568043"/>
      </g>
     </g>
     <g id="text_12">
      <!-- 0.4 -->
      <g transform="translate(28.152656 363.817418)scale(0.18 -0.18)">
       <use xlink:href="#TimesNewRomanPSMT-48"/>
       <use x="50" xlink:href="#TimesNewRomanPSMT-46"/>
       <use x="75" xlink:href="#TimesNewRomanPSMT-52"/>
      </g>
     </g>
    </g>
    <g id="ytick_3">
     <g id="line2d_23">
      <path clip-path="url(#p6764085306)" d="M 54.152656 308.075165 
L 723.752656 308.075165 
" style="fill:none;stroke:#808080;stroke-linecap:square;stroke-opacity:0.2;stroke-width:0.8;"/>
     </g>
     <g id="line2d_24">
      <g>
       <use style="stroke:#000000;stroke-width:0.8;" x="54.152656" xlink:href="#mca43505df6" y="308.075165"/>
      </g>
     </g>
     <g id="text_13">
      <!-- 0.6 -->
      <g transform="translate(28.152656 314.32454)scale(0.18 -0.18)">
       <use xlink:href="#TimesNewRomanPSMT-48"/>
       <use x="50" xlink:href="#TimesNewRomanPSMT-46"/>
       <use x="75" xlink:href="#TimesNewRomanPSMT-54"/>
      </g>
     </g>
    </g>
    <g id="ytick_4">
     <g id="line2d_25">
      <path clip-path="url(#p6764085306)" d="M 54.152656 258.582288 
L 723.752656 258.582288 
" style="fill:none;stroke:#808080;stroke-linecap:square;stroke-opacity:0.2;stroke-width:0.8;"/>
     </g>
     <g id="line2d_26">
      <g>
       <use style="stroke:#000000;stroke-width:0.8;" x="54.152656" xlink:href="#mca43505df6" y="258.582288"/>
      </g>
     </g>
     <g id="text_14">
      <!-- 0.8 -->
      <g transform="translate(28.152656 264.831663)scale(0.18 -0.18)">
       <use xlink:href="#TimesNewRomanPSMT-48"/>
       <use x="50" xlink:href="#TimesNewRomanPSMT-46"/>
       <use x="75" xlink:href="#TimesNewRomanPSMT-56"/>
      </g>
     </g>
    </g>
    <g id="ytick_5">
     <g id="line2d_27">
      <path clip-path="url(#p6764085306)" d="M 54.152656 209.08941 
L 723.752656 209.08941 
" style="fill:none;stroke:#808080;stroke-linecap:square;stroke-opacity:0.2;stroke-width:0.8;"/>
     </g>
     <g id="line2d_28">
      <g>
       <use style="stroke:#000000;stroke-width:0.8;" x="54.152656" xlink:href="#mca43505df6" y="209.08941"/>
      </g>
     </g>
     <g id="text_15">
      <!-- 1.0 -->
      <g transform="translate(28.152656 215.338785)scale(0.18 -0.18)">
       <use xlink:href="#TimesNewRomanPSMT-49"/>
       <use x="50" xlink:href="#TimesNewRomanPSMT-46"/>
       <use x="75" xlink:href="#TimesNewRomanPSMT-48"/>
      </g>
     </g>
    </g>
    <g id="ytick_6">
     <g id="line2d_29">
      <path clip-path="url(#p6764085306)" d="M 54.152656 159.596533 
L 723.752656 159.596533 
" style="fill:none;stroke:#808080;stroke-linecap:square;stroke-opacity:0.2;stroke-width:0.8;"/>
     </g>
     <g id="line2d_30">
      <g>
       <use style="stroke:#000000;stroke-width:0.8;" x="54.152656" xlink:href="#mca43505df6" y="159.596533"/>
      </g>
     </g>
     <g id="text_16">
      <!-- 1.2 -->
      <g transform="translate(28.152656 165.845908)scale(0.18 -0.18)">
       <use xlink:href="#TimesNewRomanPSMT-49"/>
       <use x="50" xlink:href="#TimesNewRomanPSMT-46"/>
       <use x="75" xlink:href="#TimesNewRomanPSMT-50"/>
      </g>
     </g>
    </g>
    <g id="ytick_7">
     <g id="line2d_31">
      <path clip-path="url(#p6764085306)" d="M 54.152656 110.103656 
L 723.752656 110.103656 
" style="fill:none;stroke:#808080;stroke-linecap:square;stroke-opacity:0.2;stroke-width:0.8;"/>
     </g>
     <g id="line2d_32">
      <g>
       <use style="stroke:#000000;stroke-width:0.8;" x="54.152656" xlink:href="#mca43505df6" y="110.103656"/>
      </g>
     </g>
     <g id="text_17">
      <!-- 1.4 -->
      <g transform="translate(28.152656 116.353031)scale(0.18 -0.18)">
       <use xlink:href="#TimesNewRomanPSMT-49"/>
       <use x="50" xlink:href="#TimesNewRomanPSMT-46"/>
       <use x="75" xlink:href="#TimesNewRomanPSMT-52"/>
      </g>
     </g>
    </g>
    <g id="ytick_8">
     <g id="line2d_33">
      <path clip-path="url(#p6764085306)" d="M 54.152656 60.610778 
L 723.752656 60.610778 
" style="fill:none;stroke:#808080;stroke-linecap:square;stroke-opacity:0.2;stroke-width:0.8;"/>
     </g>
     <g id="line2d_34">
      <g>
       <use style="stroke:#000000;stroke-width:0.8;" x="54.152656" xlink:href="#mca43505df6" y="60.610778"/>
      </g>
     </g>
     <g id="text_18">
      <!-- 1.6 -->
      <g transform="translate(28.152656 66.860153)scale(0.18 -0.18)">
       <use xlink:href="#TimesNewRomanPSMT-49"/>
       <use x="50" xlink:href="#TimesNewRomanPSMT-46"/>
       <use x="75" xlink:href="#TimesNewRomanPSMT-54"/>
      </g>
     </g>
    </g>
    <g id="ytick_9">
     <g id="line2d_35">
      <path clip-path="url(#p6764085306)" d="M 54.152656 11.117901 
L 723.752656 11.117901 
" style="fill:none;stroke:#808080;stroke-linecap:square;stroke-opacity:0.2;stroke-width:0.8;"/>
     </g>
     <g id="line2d_36">
      <g>
       <use style="stroke:#000000;stroke-width:0.8;" x="54.152656" xlink:href="#mca43505df6" y="11.117901"/>
      </g>
     </g>
     <g id="text_19">
      <!-- 1.8 -->
      <g transform="translate(28.152656 17.367276)scale(0.18 -0.18)">
       <use xlink:href="#TimesNewRomanPSMT-49"/>
       <use x="50" xlink:href="#TimesNewRomanPSMT-46"/>
       <use x="75" xlink:href="#TimesNewRomanPSMT-56"/>
      </g>
     </g>
    </g>
    <g id="text_20">
     <!-- Increments in employment rate -->
     <g transform="translate(19.189688 379.415078)rotate(-90)scale(0.23 -0.23)">
      <defs>
       <path d="M 21.046875 4.640625 
L 21.046875 -12.359375 
Q 21.046875 -15.875 21.609375 -17.140625 
Q 22.171875 -18.40625 23.34375 -18.984375 
Q 24.515625 -19.578125 27.9375 -19.578125 
L 27.9375 -21.390625 
L 1.90625 -21.390625 
L 1.90625 -19.578125 
Q 4.9375 -19.484375 6.390625 -17.875 
Q 7.375 -16.75 7.375 -12.0625 
L 7.375 36.140625 
Q 7.375 40.96875 6.25 42.3125 
Q 5.125 43.65625 1.90625 43.84375 
L 1.90625 45.65625 
L 21.046875 45.65625 
L 21.046875 39.65625 
Q 23.4375 43.171875 25.921875 44.734375 
Q 29.5 47.015625 33.6875 47.015625 
Q 38.71875 47.015625 42.84375 43.84375 
Q 46.96875 40.671875 49.109375 35.078125 
Q 51.265625 29.5 51.265625 23.046875 
Q 51.265625 16.109375 49.046875 10.375 
Q 46.828125 4.640625 42.59375 1.625 
Q 38.375 -1.375 33.203125 -1.375 
Q 29.4375 -1.375 26.171875 0.296875 
Q 23.734375 1.5625 21.046875 4.640625 
z
M 21.046875 9.578125 
Q 25.25 3.609375 30.03125 3.609375 
Q 32.671875 3.609375 34.375 6.390625 
Q 36.921875 10.5 36.921875 22.015625 
Q 36.921875 33.84375 34.125 38.1875 
Q 32.28125 41.0625 29.15625 41.0625 
Q 24.21875 41.0625 21.046875 33.9375 
z
" id="TimesNewRomanPS-BoldMT-112"/>
       <path d="M 24.3125 -1.859375 
L 9.578125 31.984375 
Q 6.25 39.65625 4.65625 41.40625 
Q 3.078125 43.171875 0.828125 43.84375 
L 0.828125 45.65625 
L 25.09375 45.65625 
L 25.09375 43.84375 
Q 22.703125 43.75 21.71875 42.921875 
Q 20.75 42.09375 20.75 40.921875 
Q 20.75 39.0625 23.1875 33.59375 
L 31 15.71875 
L 36.328125 29.546875 
Q 39.203125 36.921875 39.203125 39.796875 
Q 39.203125 41.609375 38 42.671875 
Q 36.8125 43.75 33.796875 43.84375 
L 33.796875 45.65625 
L 49.078125 45.65625 
L 49.078125 43.84375 
Q 46.828125 43.609375 45.40625 42.109375 
Q 44 40.625 40.671875 31.984375 
L 27.640625 -1.859375 
Q 22.703125 -14.546875 20.3125 -17.484375 
Q 16.9375 -21.578125 11.859375 -21.578125 
Q 7.8125 -21.578125 5.296875 -19.25 
Q 2.78125 -16.9375 2.78125 -13.671875 
Q 2.78125 -10.84375 4.515625 -8.984375 
Q 6.25 -7.125 8.796875 -7.125 
Q 11.234375 -7.125 12.71875 -8.6875 
Q 14.203125 -10.25 14.265625 -13.53125 
Q 14.3125 -15.375 14.703125 -15.921875 
Q 15.09375 -16.453125 15.828125 -16.453125 
Q 17 -16.453125 18.3125 -15.046875 
Q 20.265625 -12.984375 22.90625 -5.671875 
z
" id="TimesNewRomanPS-BoldMT-121"/>
      </defs>
      <use xlink:href="#TimesNewRomanPS-BoldMT-73"/>
      <use x="38.916016" xlink:href="#TimesNewRomanPS-BoldMT-110"/>
      <use x="94.53125" xlink:href="#TimesNewRomanPS-BoldMT-99"/>
      <use x="138.916016" xlink:href="#TimesNewRomanPS-BoldMT-114"/>
      <use x="181.550781" xlink:href="#TimesNewRomanPS-BoldMT-101"/>
      <use x="225.935547" xlink:href="#TimesNewRomanPS-BoldMT-109"/>
      <use x="309.236328" xlink:href="#TimesNewRomanPS-BoldMT-101"/>
      <use x="353.621094" xlink:href="#TimesNewRomanPS-BoldMT-110"/>
      <use x="409.236328" xlink:href="#TimesNewRomanPS-BoldMT-116"/>
      <use x="442.537109" xlink:href="#TimesNewRomanPS-BoldMT-115"/>
      <use x="481.453125" xlink:href="#TimesNewRomanPS-BoldMT-32"/>
      <use x="506.453125" xlink:href="#TimesNewRomanPS-BoldMT-105"/>
      <use x="534.236328" xlink:href="#TimesNewRomanPS-BoldMT-110"/>
      <use x="589.851562" xlink:href="#TimesNewRomanPS-BoldMT-32"/>
      <use x="614.851562" xlink:href="#TimesNewRomanPS-BoldMT-101"/>
      <use x="659.236328" xlink:href="#TimesNewRomanPS-BoldMT-109"/>
      <use x="742.537109" xlink:href="#TimesNewRomanPS-BoldMT-112"/>
      <use x="798.152344" xlink:href="#TimesNewRomanPS-BoldMT-108"/>
      <use x="825.935547" xlink:href="#TimesNewRomanPS-BoldMT-111"/>
      <use x="875.935547" xlink:href="#TimesNewRomanPS-BoldMT-121"/>
      <use x="925.935547" xlink:href="#TimesNewRomanPS-BoldMT-109"/>
      <use x="1009.236328" xlink:href="#TimesNewRomanPS-BoldMT-101"/>
      <use x="1053.621094" xlink:href="#TimesNewRomanPS-BoldMT-110"/>
      <use x="1109.236328" xlink:href="#TimesNewRomanPS-BoldMT-116"/>
      <use x="1142.537109" xlink:href="#TimesNewRomanPS-BoldMT-32"/>
      <use x="1167.537109" xlink:href="#TimesNewRomanPS-BoldMT-114"/>
      <use x="1211.921875" xlink:href="#TimesNewRomanPS-BoldMT-97"/>
      <use x="1261.921875" xlink:href="#TimesNewRomanPS-BoldMT-116"/>
      <use x="1295.222656" xlink:href="#TimesNewRomanPS-BoldMT-101"/>
     </g>
    </g>
   </g>
   <g id="patch_3">
    <path d="M 54.152656 447.12 
L 54.152656 3.6 
" style="fill:none;stroke:#000000;stroke-linecap:square;stroke-linejoin:miter;stroke-width:0.8;"/>
   </g>
   <g id="patch_4">
    <path d="M 723.752656 447.12 
L 723.752656 3.6 
" style="fill:none;stroke:#000000;stroke-linecap:square;stroke-linejoin:miter;stroke-width:0.8;"/>
   </g>
   <g id="patch_5">
    <path d="M 54.152656 447.12 
L 723.752656 447.12 
" style="fill:none;stroke:#000000;stroke-linecap:square;stroke-linejoin:miter;stroke-width:0.8;"/>
   </g>
   <g id="patch_6">
    <path d="M 54.152656 3.6 
L 723.752656 3.6 
" style="fill:none;stroke:#000000;stroke-linecap:square;stroke-linejoin:miter;stroke-width:0.8;"/>
   </g>
   <g id="legend_1"/>
  </g>
 </g>
 <defs>
  <clipPath id="p6764085306">
   <rect height="443.52" width="669.6" x="54.152656" y="3.6"/>
  </clipPath>
 </defs>
</svg>
